<svg xmlns="http://www.w3.org/2000/svg" width="19" height="19" viewBox="0 0 19 19">
  <path id="Icon_material-color-lens" data-name="Icon material-color-lens" d="M14,4.5a9.5,9.5,0,0,0,0,19,1.584,1.584,0,0,0,1.172-2.649,1.577,1.577,0,0,1,1.182-2.628h1.868A5.28,5.28,0,0,0,23.5,12.944C23.5,8.279,19.246,4.5,14,4.5ZM8.194,14a1.583,1.583,0,1,1,1.583-1.583A1.581,1.581,0,0,1,8.194,14Zm3.167-4.222a1.583,1.583,0,1,1,1.583-1.583A1.581,1.581,0,0,1,11.361,9.778Zm5.278,0a1.583,1.583,0,1,1,1.583-1.583A1.581,1.581,0,0,1,16.639,9.778ZM19.806,14a1.583,1.583,0,1,1,1.583-1.583A1.581,1.581,0,0,1,19.806,14Z" transform="translate(-4.5 -4.5)" fill="#959595"/>
</svg>
